<?xml version="1.0" standalone="no"?>
<!DOCTYPE svg PUBLIC "-//W3C//DTD SVG 20010904//EN"
 "http://www.w3.org/TR/2001/REC-SVG-20010904/DTD/svg10.dtd">
<svg version="1.0" xmlns="http://www.w3.org/2000/svg"
 width="4961.000000pt" height="3508.000000pt" viewBox="0 0 4961.000000 3508.000000"
 preserveAspectRatio="xMidYMid meet">

<g transform="translate(0.000000,3508.000000) scale(0.100000,-0.100000)"
fill="#000000" stroke="none">
<path d="M25160 23125 c0 -194 1 -205 19 -205 10 0 21 -7 25 -15 5 -13 32 -15
188 -13 l183 3 3 184 c1 116 -1 188 -8 195 -5 5 -10 20 -10 33 l0 23 -200 0
-200 0 0 -205z"/>
<path d="M17240 21790 c0 -1318 0 -1350 19 -1350 10 0 21 -7 25 -15 4 -13 35
-15 185 -15 133 0 182 3 188 13 4 6 10 484 13 1061 4 785 8 1050 17 1053 6 2
248 -279 538 -624 289 -345 537 -637 551 -647 26 -19 26 -19 52 8 15 14 257
299 537 633 281 334 516 608 523 611 9 3 12 -209 12 -1037 0 -1015 0 -1041 19
-1041 10 0 21 -7 25 -15 5 -13 32 -15 188 -13 l183 3 3 1329 c1 880 -1 1333
-8 1340 -5 5 -10 20 -10 33 l0 23 -242 -2 -242 -3 -519 -620 c-286 -341 -522
-621 -526 -622 -3 -1 -242 279 -531 623 l-524 624 -238 0 -238 0 0 -1350z"/>
<path d="M20710 22415 c0 -194 1 -205 19 -205 10 0 21 -7 25 -15 5 -13 110
-15 861 -15 571 0 863 -3 876 -10 18 -10 19 -23 19 -225 l0 -215 -900 0 -901
0 3 -462 c3 -457 3 -464 26 -518 64 -153 213 -284 369 -325 83 -22 1804 -23
1822 -1 9 10 11 240 9 892 l-3 879 -28 70 c-55 139 -147 245 -266 305 -98 49
-115 50 -1053 50 l-878 0 0 -205z m1800 -1345 l0 -220 -672 0 c-611 0 -673 1
-690 17 -16 14 -18 35 -18 204 0 157 3 190 16 203 14 14 90 16 690 16 l674 0
0 -220z"/>
<path d="M23625 22608 c-126 -24 -264 -126 -325 -239 -62 -116 -60 -81 -60
-1046 0 -860 0 -883 19 -883 10 0 21 -7 25 -15 5 -13 32 -15 188 -13 l183 3 5
852 5 853 28 27 27 28 607 3 c422 2 611 6 620 13 10 9 13 53 13 183 0 95 -4
176 -9 182 -5 5 -11 20 -13 34 l-3 25 -630 1 c-365 1 -651 -2 -680 -8z"/>
<path d="M25940 22415 c0 -194 1 -205 19 -205 10 0 21 -7 25 -15 5 -13 117
-15 875 -17 478 -2 873 -7 878 -11 4 -5 9 -105 11 -223 l3 -214 -905 0 -906 0
0 -437 c0 -480 1 -492 60 -602 39 -73 157 -189 230 -226 111 -56 90 -55 1040
-55 668 0 879 3 888 12 9 9 12 213 12 859 0 795 -4 937 -28 961 -4 4 -6 -246
-5 -555 l1 -562 -77 684 c-76 669 -78 683 -102 703 -49 40 -164 88 -234 98
-42 6 -410 10 -927 10 l-858 0 0 -205z m1810 -1345 l0 -220 -676 0 c-446 0
-682 4 -695 10 -18 10 -19 23 -19 205 0 163 3 196 16 209 14 14 91 16 695 16
l679 0 0 -220z"/>
<path d="M25160 21525 c0 -1058 0 -1085 19 -1085 10 0 21 -7 25 -15 5 -13 32
-15 188 -13 l183 3 3 1064 c1 703 -1 1068 -8 1075 -5 5 -10 20 -10 33 l0 23
-200 0 -200 0 0 -1085z"/>
<path d="M30688 21335 l3 -895 -187 0 c-144 0 -185 -3 -182 -12 4 -10 52 -14
186 -16 173 -2 182 -2 192 18 14 26 9 1732 -5 1772 -7 18 -9 -287 -7 -867z"/>
<path d="M33245 21547 c0 -635 -1 -687 -19 -750 -46 -169 -202 -314 -371 -347
-43 -8 -261 -10 -755 -8 -692 3 -695 3 -749 25 -30 13 -56 21 -59 19 -6 -7
104 -55 149 -65 27 -7 302 -11 724 -11 739 0 736 0 847 56 78 40 162 129 204
218 30 63 37 92 46 183 12 131 5 1296 -8 1335 -6 17 -9 -232 -9 -655z"/>
<path d="M28906 22189 l-26 -20 0 -865 0 -864 -186 0 c-165 0 -185 -2 -174
-15 10 -12 44 -15 184 -15 120 0 176 4 184 12 9 9 12 211 12 845 0 911 -2 877
57 902 21 8 198 11 665 9 606 -3 636 -2 621 15 -15 16 -60 17 -663 17 -640 0
-648 0 -674 -21z"/>
<path d="M31465 22185 l-25 -24 0 -630 c0 -409 4 -632 10 -636 7 -4 10 201 10
607 0 669 -2 642 57 667 21 8 199 11 666 9 609 -3 637 -2 616 15 -20 16 -67
17 -666 17 l-644 0 -24 -25z"/>
</g>
</svg>
